<?xml version="1.0" standalone="no"?>
<!DOCTYPE svg PUBLIC "-//W3C//DTD SVG 20010904//EN"
 "http://www.w3.org/TR/2001/REC-SVG-20010904/DTD/svg10.dtd">
<svg version="1.0" xmlns="http://www.w3.org/2000/svg"
 width="200.000000pt" height="200.000000pt" viewBox="0 0 200.000000 200.000000"
 preserveAspectRatio="xMidYMid meet">

<g transform="translate(0.000000,200.000000) scale(0.100000,-0.100000)"
fill="#000000" stroke="none">
<path d="M726 681 c-4 -6 5 -17 18 -26 23 -16 29 -16 76 0 48 16 52 16 71 -1
10 -9 19 -13 19 -7 0 5 -9 18 -19 27 -19 17 -22 17 -71 1 -48 -16 -52 -16 -70
0 -11 10 -20 12 -24 6z"/>
<path d="M453 598 c-70 -37 -95 -56 -99 -74 -4 -14 -5 -26 -3 -27 2 -1 53 -26
113 -56 81 -40 113 -51 124 -44 34 21 22 34 -67 75 -51 23 -90 46 -88 52 2 6
34 28 73 48 46 25 69 42 69 55 0 30 -26 24 -122 -29z"/>
<path d="M1364 638 c-9 -14 20 -36 67 -48 21 -6 48 -19 61 -30 l23 -20 -25
-20 c-14 -11 -47 -35 -73 -52 -44 -29 -57 -56 -32 -65 9 -3 150 98 184 132 21
21 -1 42 -86 82 -75 35 -107 41 -119 21z"/>
<path d="M786 567 c-40 -41 -12 -117 44 -117 38 0 50 18 50 72 0 43 -3 50 -26
58 -36 14 -42 13 -68 -13z m62 -44 c5 -17 -26 -29 -40 -15 -6 6 -7 15 -3 22 9
14 37 9 43 -7z"/>
<path d="M1109 569 c-16 -16 -20 -28 -15 -52 18 -92 116 -89 116 3 0 66 -57
93 -101 49z m56 -50 c0 -7 -8 -15 -17 -17 -18 -3 -25 18 -11 32 10 10 28 1 28
-15z"/>
<path d="M1050 365 c-15 -18 -71 -20 -90 -2 -8 6 -6 2 4 -10 25 -30 57 -29 86
2 13 14 21 25 18 25 -3 0 -11 -7 -18 -15z"/>
<path d="M805 279 c-71 -34 -79 -35 -130 -9 -48 24 -45 25 -45 -2 1 -45 36
-104 73 -121 43 -21 136 -22 182 -3 108 45 115 168 10 165 -16 0 -57 -14 -90
-30z"/>
<path d="M1045 298 c-30 -17 -36 -30 -30 -62 12 -64 82 -106 177 -106 98 0
158 50 158 130 0 29 -13 40 -25 21 -3 -5 -21 -15 -40 -21 -30 -10 -42 -8 -104
19 -74 33 -104 37 -136 19z"/>
</g>
</svg>
